<svg xmlns="http://www.w3.org/2000/svg" version="1.1" xmlns:xlink="http://www.w3.org/1999/xlink" xmlns:svgjs="http://svgjs.dev/svgjs" width="1500" height="935" viewBox="0 0 1500 935"><g transform="matrix(1,0,0,1,-0.9090909090909918,0.3785425101214628)"><svg viewBox="0 0 396 247" data-background-color="#ffffff" preserveAspectRatio="xMidYMid meet" height="935" width="1500" xmlns="http://www.w3.org/2000/svg" xmlns:xlink="http://www.w3.org/1999/xlink"><g id="tight-bounds" transform="matrix(1,0,0,1,0.2400000000000091,-0.09999999999999432)"><svg viewBox="0 0 395.52 247.2" height="247.2" width="395.52"><g><svg></svg></g><g><svg viewBox="0 0 395.52 247.2" height="247.2" width="395.52"><g transform="matrix(1,0,0,1,75.54432,83.11777859759782)"><svg viewBox="0 0 244.43135999999998 80.96444280480435" height="80.96444280480435" width="244.43135999999998"><g><svg viewBox="0 0 244.43135999999998 80.96444280480435" height="80.96444280480435" width="244.43135999999998"><g><svg viewBox="0 0 244.43135999999998 80.96444280480435" height="80.96444280480435" width="244.43135999999998"><g><svg viewBox="0 0 244.43135999999998 80.96444280480435" height="80.96444280480435" width="244.43135999999998"><g id="textblocktransform"><svg viewBox="0 0 244.43135999999998 80.96444280480435" height="80.96444280480435" width="244.43135999999998" id="textblock"><g><svg viewBox="0 0 244.43135999999998 57.34889284703321" height="57.34889284703321" width="244.43135999999998"><g transform="matrix(1,0,0,1,0,0)"><svg width="244.43135999999998" viewBox="0.35 -31 183.68 43.10000000000001" height="57.34889284703321" data-palette-color="#000000"><path d="M9.9 12.1L4.9 12.1 10.55-1.1 0.35-24.5 5.35-24.5 13-6.3 19.9-24.5 24.9-24.5 9.9 12.1ZM38.5 0.5L38.5 0.5Q34.65 0.5 31.93-1.21 29.22-2.93 27.79-5.81 26.35-8.7 26.35-12.25L26.35-12.25Q26.35-15.8 27.79-18.69 29.22-21.58 31.93-23.29 34.65-25 38.5-25L38.5-25Q42.32-25 45.05-23.29 47.77-21.58 49.21-18.69 50.65-15.8 50.65-12.25L50.65-12.25Q50.65-8.7 49.21-5.81 47.77-2.93 45.05-1.21 42.32 0.5 38.5 0.5ZM38.5-3.5L38.5-3.5Q42.15-3.5 44.1-5.81 46.05-8.13 46.05-12.25L46.05-12.25Q46.05-16.38 44.1-18.69 42.15-21 38.5-21L38.5-21Q34.87-21 32.91-18.69 30.95-16.38 30.95-12.25L30.95-12.25Q30.95-8.13 32.91-5.81 34.87-3.5 38.5-3.5ZM64.09 0.5L64.09 0.5Q61.22 0.5 59.2-0.66 57.17-1.83 56.11-4.2 55.05-6.58 55.05-10.25L55.05-10.25 55.05-24.5 59.55-24.5 59.55-11.5Q59.55-7.6 60.88-5.55 62.22-3.5 65.25-3.5L65.25-3.5Q67.32-3.5 69.09-4.5 70.87-5.5 71.55-7.7L71.55-7.7 70.9-5.25 70.9-24.5 75.4-24.5 75.4 0 71.4 0 70.5-4.8 71.7-4Q70.47-1.73 68.71-0.61 66.95 0.5 64.09 0.5ZM86.29 0L81.49 0 81.49-24.5 85.19-24.5 85.74-20.45Q87.62-22.78 89.33-23.89 91.04-25 92.99-25L92.99-25Q93.62-25 94.14-24.85L94.14-24.85 93.69-19.9Q93.37-19.98 93.01-20.01 92.64-20.05 92.19-20.05L92.19-20.05Q90.24-20.05 88.61-19.19 86.97-18.32 86.29-17.3L86.29-17.3 86.29 0ZM119.79 0.5L119.79 0.5Q115.64 0.5 112.83-1.19 110.01-2.88 108.58-5.74 107.14-8.6 107.14-12.1L107.14-12.1Q107.14-15.75 108.53-18.68 109.91-21.6 112.79-23.3 115.66-25 120.14-25L120.14-25Q122.06-25 123.78-24.61 125.49-24.23 126.84-23.55L126.84-23.55 126.14-19.6Q124.76-20.25 123.23-20.63 121.69-21 120.04-21L120.04-21Q115.99-21 113.86-18.7 111.74-16.4 111.74-12.3L111.74-12.3Q111.74-8.3 113.76-5.88 115.79-3.45 119.94-3.45L119.94-3.45Q121.64-3.45 123.2-3.85 124.76-4.25 126.19-4.95L126.19-4.95 126.79-1.35Q125.79-0.65 123.86-0.08 121.94 0.5 119.79 0.5ZM136.94 0.5L136.94 0.5Q134.66 0.5 132.96-0.43 131.26-1.35 130.32-2.95 129.38-4.55 129.38-6.6L129.38-6.6Q129.38-8.68 130.3-10.16 131.21-11.65 132.75-12.64 134.28-13.63 136.19-14.21 138.09-14.8 140.12-15.06 142.16-15.33 144.03-15.35L144.03-15.35Q144.03-18.85 142.66-19.93 141.28-21 138.69-21L138.69-21Q137.31-21 135.75-20.58 134.19-20.15 132.24-18.8L132.24-18.8 131.59-22.45Q133.06-23.58 135.26-24.29 137.46-25 139.88-25L139.88-25Q142.99-25 144.88-23.91 146.78-22.83 147.66-20.25 148.53-17.68 148.53-13.25L148.53-13.25 148.53-8.25Q148.53-6.5 148.7-5.36 148.86-4.23 149.45-3.66 150.03-3.1 151.34-3.1L151.34-3.1 151.78-3.1 151.09 0.5 150.74 0.5Q148.56 0.5 147.37 0.08 146.19-0.35 145.56-1.15 144.94-1.95 144.44-3.1L144.44-3.1Q143.06-1.5 141.19-0.5 139.31 0.5 136.94 0.5ZM137.78-3.1L137.78-3.1Q139.59-3.1 141.27-4 142.96-4.9 144.03-6.4L144.03-6.4 144.03-12.25Q140.46-12.13 138.25-11.55 136.03-10.98 135.01-9.83 133.99-8.68 133.99-6.85L133.99-6.85Q133.99-4.88 135.05-3.99 136.11-3.1 137.78-3.1ZM160.03 0L155.23 0 155.23-24.5 158.93-24.5 159.48-20.45Q161.36-22.78 163.07-23.89 164.78-25 166.73-25L166.73-25Q167.36-25 167.88-24.85L167.88-24.85 167.43-19.9Q167.11-19.98 166.75-20.01 166.38-20.05 165.93-20.05L165.93-20.05Q163.98-20.05 162.34-19.19 160.71-18.32 160.03-17.3L160.03-17.3 160.03 0ZM183.53 0.5L179.48 0.5Q177.16 0.5 175.76-0.35 174.36-1.2 173.72-2.54 173.08-3.88 173.08-5.35L173.08-5.35 173.08-21 168.88-21 169.28-24.5 173.08-24.5 173.08-30.55 177.58-31 177.58-24.5 184.03-24.5 184.03-21 177.58-21 177.58-8.1Q177.58-5.75 177.86-4.7 178.13-3.65 179.22-3.38 180.31-3.1 182.73-3.1L182.73-3.1 183.88-3.1 183.53 0.5Z" opacity="1" transform="matrix(1,0,0,1,0,0)" fill="#000000" class="wordmark-text-0" data-fill-palette-color="primary" id="text-0"></path></svg></g></svg></g><g transform="matrix(1,0,0,1,0,70.88759007478943)"><svg viewBox="0 0 244.43135999999998 10.076852730014927" height="10.076852730014927" width="244.43135999999998"><g transform="matrix(1,0,0,1,0,0)"><svg width="244.43135999999998" viewBox="5 -39.55 1247.89806448928 51.449999999999996" height="10.076852730014927" data-palette-color="#61777f"><path d="M30.4 0L6.95 0Q6.1 0 5.55-0.55 5-1.1 5-1.95L5-1.95 5-37.1Q5-37.95 5.55-38.5 6.1-39.05 6.95-39.05L6.95-39.05 30.4-39.05Q31.2-39.05 31.78-38.53 32.35-38 32.35-37.15L32.35-37.15Q32.35-36.4 31.78-35.85 31.2-35.3 30.4-35.3L30.4-35.3 8.9-35.3 8.9-21.5 24.55-21.5Q25.4-21.5 25.95-20.95 26.5-20.4 26.5-19.6L26.5-19.6Q26.5-18.8 25.95-18.25 25.4-17.7 24.55-17.7L24.55-17.7 8.9-17.7 8.9-3.75 30.4-3.75Q31.2-3.75 31.78-3.2 32.35-2.65 32.35-1.9L32.35-1.9Q32.35-1.05 31.78-0.53 31.2 0 30.4 0L30.4 0ZM76.05 0L76.05 0Q75.2 0 74.65-0.53 74.1-1.05 74.1-1.9L74.1-1.9 74.1-16.3Q74.1-19.85 72.25-21.93 70.4-24 67.5-24L67.5-24Q64.4-24 62.42-21.93 60.45-19.85 60.5-16.4L60.5-16.4 57.05-16.4Q57.1-19.75 58.5-22.3 59.9-24.85 62.35-26.25 64.8-27.65 67.9-27.65L67.9-27.65Q70.85-27.65 73.12-26.25 75.4-24.85 76.67-22.3 77.95-19.75 77.95-16.3L77.95-16.3 77.95-1.9Q77.95-1.05 77.42-0.53 76.9 0 76.05 0ZM41.05 0L41.05 0Q40.15 0 39.62-0.53 39.1-1.05 39.1-1.9L39.1-1.9 39.1-25.4Q39.1-26.25 39.62-26.8 40.15-27.35 41.05-27.35L41.05-27.35Q41.9-27.35 42.42-26.8 42.95-26.25 42.95-25.4L42.95-25.4 42.95-1.9Q42.95-1.05 42.42-0.53 41.9 0 41.05 0ZM58.6 0L58.6 0Q57.75 0 57.2-0.53 56.65-1.05 56.65-1.9L56.65-1.9 56.65-16.3Q56.65-19.85 54.8-21.93 52.95-24 50.05-24L50.05-24Q46.95-24 44.95-21.98 42.95-19.95 42.95-16.7L42.95-16.7 40.2-16.7Q40.3-19.9 41.62-22.38 42.95-24.85 45.25-26.25 47.55-27.65 50.45-27.65L50.45-27.65Q53.4-27.65 55.67-26.25 57.95-24.85 59.22-22.3 60.5-19.75 60.5-16.3L60.5-16.3 60.5-1.9Q60.5-1.05 59.97-0.53 59.45 0 58.6 0ZM88.4 11.7L88.4 11.7Q87.5 11.7 86.97 11.18 86.45 10.65 86.45 9.75L86.45 9.75 86.45-13.85Q86.5-17.75 88.32-20.88 90.15-24 93.27-25.8 96.4-27.6 100.3-27.6L100.3-27.6Q104.3-27.6 107.45-25.78 110.6-23.95 112.42-20.8 114.25-17.65 114.25-13.65L114.25-13.65Q114.25-9.7 112.47-6.55 110.7-3.4 107.65-1.58 104.6 0.25 100.75 0.25L100.75 0.25Q97.4 0.25 94.67-1.18 91.95-2.6 90.3-4.95L90.3-4.95 90.3 9.75Q90.3 10.65 89.77 11.18 89.25 11.7 88.4 11.7ZM100.3-3.25L100.3-3.25Q103.2-3.25 105.5-4.6 107.8-5.95 109.12-8.33 110.45-10.7 110.45-13.65L110.45-13.65Q110.45-16.65 109.12-19 107.8-21.35 105.5-22.73 103.2-24.1 100.3-24.1L100.3-24.1Q97.45-24.1 95.15-22.73 92.85-21.35 91.55-19 90.25-16.65 90.25-13.65L90.25-13.65Q90.25-10.7 91.55-8.33 92.85-5.95 95.15-4.6 97.45-3.25 100.3-3.25ZM134.24 0.25L134.24 0.25Q130.24 0.25 127.09-1.55 123.94-3.35 122.14-6.5 120.34-9.65 120.34-13.65L120.34-13.65Q120.34-17.7 122.14-20.85 123.94-24 127.09-25.8 130.24-27.6 134.24-27.6L134.24-27.6Q138.24-27.6 141.37-25.8 144.49-24 146.29-20.85 148.09-17.7 148.14-13.65L148.14-13.65Q148.14-9.65 146.32-6.5 144.49-3.35 141.37-1.55 138.24 0.25 134.24 0.25ZM134.24-3.25L134.24-3.25Q137.14-3.25 139.44-4.6 141.74-5.95 143.04-8.3 144.34-10.65 144.34-13.65L144.34-13.65Q144.34-16.65 143.04-19.03 141.74-21.4 139.44-22.75 137.14-24.1 134.24-24.1L134.24-24.1Q131.34-24.1 129.04-22.75 126.74-21.4 125.42-19.03 124.09-16.65 124.09-13.65L124.09-13.65Q124.09-10.65 125.42-8.3 126.74-5.95 129.04-4.6 131.34-3.25 134.24-3.25ZM160.34 0L160.34 0Q159.69 0 159.19-0.35 158.69-0.7 158.49-1.25L158.49-1.25 150.69-24.65Q150.39-25.9 150.74-26.63 151.09-27.35 152.14-27.35L152.14-27.35Q152.79-27.35 153.29-27 153.79-26.65 154.04-25.9L154.04-25.9 160.99-4.65 159.89-4.65 166.34-25.85Q166.54-26.5 167.02-26.93 167.49-27.35 168.24-27.35L168.24-27.35Q168.99-27.35 169.47-26.95 169.94-26.55 170.14-25.85L170.14-25.85 176.29-5.15 175.44-5.15 182.24-25.9Q182.74-27.35 184.09-27.35L184.09-27.35Q185.19-27.35 185.59-26.53 185.99-25.7 185.59-24.65L185.59-24.65 177.79-1.25Q177.59-0.7 177.12-0.35 176.64 0 175.99 0L175.99 0Q175.34 0 174.82-0.35 174.29-0.7 174.14-1.25L174.14-1.25 167.84-22.15 168.44-22.15 162.14-1.25Q161.94-0.65 161.44-0.33 160.94 0 160.34 0ZM202.54 0.25L202.54 0.25Q198.49 0.25 195.36-1.53 192.24-3.3 190.46-6.45 188.69-9.6 188.69-13.65L188.69-13.65Q188.69-17.75 190.36-20.88 192.04-24 194.99-25.8 197.94-27.6 201.79-27.6L201.79-27.6Q205.59-27.6 208.41-25.88 211.24-24.15 212.79-21.1 214.34-18.05 214.34-14.15L214.34-14.15Q214.34-13.35 213.84-12.88 213.34-12.4 212.54-12.4L212.54-12.4 191.29-12.4 191.29-15.6 212.94-15.6 210.79-14.05Q210.84-16.95 209.74-19.25 208.64-21.55 206.61-22.85 204.59-24.15 201.79-24.15L201.79-24.15Q198.94-24.15 196.79-22.8 194.64-21.45 193.46-19.07 192.29-16.7 192.29-13.65L192.29-13.65Q192.29-10.6 193.61-8.25 194.94-5.9 197.24-4.55 199.54-3.2 202.54-3.2L202.54-3.2Q204.34-3.2 206.16-3.83 207.99-4.45 209.09-5.4L209.09-5.4Q209.64-5.85 210.34-5.88 211.04-5.9 211.54-5.5L211.54-5.5Q212.19-4.9 212.21-4.2 212.24-3.5 211.64-3L211.64-3Q209.99-1.6 207.44-0.68 204.89 0.25 202.54 0.25ZM224.64-16.85L222.44-16.85Q222.59-19.95 224.06-22.4 225.54-24.85 227.91-26.25 230.29-27.65 233.19-27.65L233.19-27.65Q235.49-27.65 236.74-27 237.99-26.35 237.69-25.1L237.69-25.1Q237.49-24.35 237.01-24.1 236.54-23.85 235.86-23.9 235.19-23.95 234.34-24L234.34-24Q231.54-24.25 229.36-23.43 227.19-22.6 225.91-20.9 224.64-19.2 224.64-16.85L224.64-16.85ZM222.74 0L222.74 0Q221.84 0 221.34-0.5 220.84-1 220.84-1.9L220.84-1.9 220.84-25.45Q220.84-26.35 221.34-26.85 221.84-27.35 222.74-27.35L222.74-27.35Q223.64-27.35 224.14-26.85 224.64-26.35 224.64-25.45L224.64-25.45 224.64-1.9Q224.64-1 224.14-0.5 223.64 0 222.74 0ZM246.48 0L246.48 0Q245.58 0 245.06-0.53 244.53-1.05 244.53-1.95L244.53-1.95 244.53-25.4Q244.53-26.3 245.06-26.83 245.58-27.35 246.48-27.35L246.48-27.35Q247.33-27.35 247.86-26.83 248.38-26.3 248.38-25.4L248.38-25.4 248.38-1.95Q248.38-1.05 247.86-0.53 247.33 0 246.48 0ZM246.43-32.55L246.43-32.55Q245.33-32.55 244.53-33.35 243.73-34.15 243.73-35.3L243.73-35.3Q243.73-36.55 244.56-37.27 245.38-38 246.48-38L246.48-38Q247.53-38 248.36-37.27 249.18-36.55 249.18-35.3L249.18-35.3Q249.18-34.15 248.38-33.35 247.58-32.55 246.43-32.55ZM281.63 0L281.63 0Q280.78 0 280.23-0.55 279.68-1.1 279.68-1.9L279.68-1.9 279.68-14.9Q279.68-18 278.51-20 277.33-22 275.31-23 273.28-24 270.73-24L270.73-24Q268.28-24 266.31-23.05 264.33-22.1 263.18-20.45 262.03-18.8 262.03-16.7L262.03-16.7 259.28-16.7Q259.38-19.85 260.98-22.33 262.58-24.8 265.23-26.23 267.88-27.65 271.13-27.65L271.13-27.65Q274.68-27.65 277.48-26.18 280.28-24.7 281.91-21.85 283.53-19 283.53-14.9L283.53-14.9 283.53-1.9Q283.53-1.1 282.98-0.55 282.43 0 281.63 0ZM260.13 0L260.13 0Q259.23 0 258.71-0.53 258.18-1.05 258.18-1.9L258.18-1.9 258.18-25.4Q258.18-26.3 258.71-26.83 259.23-27.35 260.13-27.35L260.13-27.35Q260.98-27.35 261.51-26.83 262.03-26.3 262.03-25.4L262.03-25.4 262.03-1.9Q262.03-1.05 261.51-0.53 260.98 0 260.13 0ZM304.08 0.25L304.08 0.25Q300.13 0.25 297.08-1.53 294.03-3.3 292.3-6.45 290.58-9.6 290.58-13.65L290.58-13.65Q290.58-17.75 292.38-20.9 294.18-24.05 297.33-25.83 300.48-27.6 304.48-27.6L304.48-27.6Q308.53-27.6 311.65-25.83 314.78-24.05 316.55-20.9 318.33-17.75 318.38-13.65L318.38-13.65 316.13-12.45Q316.13-8.75 314.58-5.88 313.03-3 310.3-1.38 307.58 0.25 304.08 0.25ZM304.58 10.8L304.58 10.8Q300.63 10.8 297.63 9.33 294.63 7.85 292.68 5.3L292.68 5.3Q292.13 4.7 292.2 4 292.28 3.3 292.93 2.85L292.93 2.85Q293.58 2.4 294.38 2.55 295.18 2.7 295.63 3.3L295.63 3.3Q297.08 5.1 299.35 6.2 301.63 7.3 304.63 7.3L304.63 7.3Q307.43 7.3 309.68 5.95 311.93 4.6 313.25 2.15 314.58-0.3 314.58-3.6L314.58-3.6 314.58-11.2 316.03-14.1 318.38-13.65 318.38-3.45Q318.38 0.6 316.58 3.83 314.78 7.05 311.68 8.93 308.58 10.8 304.58 10.8ZM304.48-3.25L304.48-3.25Q307.43-3.25 309.7-4.58 311.98-5.9 313.28-8.25 314.58-10.6 314.58-13.65L314.58-13.65Q314.58-16.7 313.28-19.07 311.98-21.45 309.7-22.78 307.43-24.1 304.48-24.1L304.48-24.1Q301.53-24.1 299.23-22.78 296.93-21.45 295.63-19.07 294.33-16.7 294.33-13.65L294.33-13.65Q294.33-10.6 295.63-8.25 296.93-5.9 299.23-4.58 301.53-3.25 304.48-3.25ZM352.22 0L352.22 0Q351.42 0 350.85-0.58 350.27-1.15 350.27-1.95L350.27-1.95 350.27-14.45 336.67-36Q336.17-36.75 336.3-37.45 336.42-38.15 336.92-38.6 337.42-39.05 338.17-39.05L338.17-39.05Q338.77-39.05 339.15-38.8 339.52-38.55 339.82-38.1L339.82-38.1 353.32-16.35 351.22-16.35 364.67-38Q365.02-38.55 365.45-38.8 365.87-39.05 366.47-39.05L366.47-39.05Q367.17-39.05 367.65-38.58 368.12-38.1 368.2-37.4 368.27-36.7 367.82-36L367.82-36 354.17-14.45 354.17-1.95Q354.17-1.15 353.6-0.58 353.02 0 352.22 0ZM380.37 0.25L380.37 0.25Q376.37 0.25 373.22-1.55 370.07-3.35 368.27-6.5 366.47-9.65 366.47-13.65L366.47-13.65Q366.47-17.7 368.27-20.85 370.07-24 373.22-25.8 376.37-27.6 380.37-27.6L380.37-27.6Q384.37-27.6 387.5-25.8 390.62-24 392.42-20.85 394.22-17.7 394.27-13.65L394.27-13.65Q394.27-9.65 392.44-6.5 390.62-3.35 387.5-1.55 384.37 0.25 380.37 0.25ZM380.37-3.25L380.37-3.25Q383.27-3.25 385.57-4.6 387.87-5.95 389.17-8.3 390.47-10.65 390.47-13.65L390.47-13.65Q390.47-16.65 389.17-19.03 387.87-21.4 385.57-22.75 383.27-24.1 380.37-24.1L380.37-24.1Q377.47-24.1 375.17-22.75 372.87-21.4 371.55-19.03 370.22-16.65 370.22-13.65L370.22-13.65Q370.22-10.65 371.55-8.3 372.87-5.95 375.17-4.6 377.47-3.25 380.37-3.25ZM413.67 0.3L413.67 0.3Q410.12 0.3 407.32-1.18 404.52-2.65 402.89-5.5 401.27-8.35 401.27-12.45L401.27-12.45 401.27-25.45Q401.27-26.25 401.82-26.8 402.37-27.35 403.17-27.35L403.17-27.35Q404.02-27.35 404.57-26.8 405.12-26.25 405.12-25.45L405.12-25.45 405.12-12.45Q405.12-9.35 406.29-7.35 407.47-5.35 409.49-4.35 411.52-3.35 414.07-3.35L414.07-3.35Q416.52-3.35 418.49-4.3 420.47-5.25 421.62-6.9 422.77-8.55 422.77-10.65L422.77-10.65 425.52-10.65Q425.37-7.5 423.79-5.03 422.22-2.55 419.57-1.13 416.92 0.3 413.67 0.3ZM424.67 0L424.67 0Q423.82 0 423.29-0.53 422.77-1.05 422.77-1.95L422.77-1.95 422.77-25.45Q422.77-26.3 423.29-26.83 423.82-27.35 424.67-27.35L424.67-27.35Q425.52-27.35 426.07-26.83 426.62-26.3 426.62-25.45L426.62-25.45 426.62-1.95Q426.62-1.05 426.07-0.53 425.52 0 424.67 0ZM439.42-16.85L437.22-16.85Q437.37-19.95 438.84-22.4 440.32-24.85 442.69-26.25 445.07-27.65 447.97-27.65L447.97-27.65Q450.27-27.65 451.52-27 452.77-26.35 452.47-25.1L452.47-25.1Q452.27-24.35 451.79-24.1 451.32-23.85 450.64-23.9 449.97-23.95 449.12-24L449.12-24Q446.32-24.25 444.14-23.43 441.97-22.6 440.69-20.9 439.42-19.2 439.42-16.85L439.42-16.85ZM437.52 0L437.52 0Q436.62 0 436.12-0.5 435.62-1 435.62-1.9L435.62-1.9 435.62-25.45Q435.62-26.35 436.12-26.85 436.62-27.35 437.52-27.35L437.52-27.35Q438.42-27.35 438.92-26.85 439.42-26.35 439.42-25.45L439.42-25.45 439.42-1.9Q439.42-1 438.92-0.5 438.42 0 437.52 0ZM485.66 0.5L485.66 0.5Q482.46 0.5 479.74-0.43 477.01-1.35 475.01-3.05 473.01-4.75 471.96-7L471.96-7Q471.56-7.8 471.94-8.47 472.31-9.15 473.21-9.4L473.21-9.4Q473.91-9.6 474.59-9.25 475.26-8.9 475.61-8.2L475.61-8.2Q476.36-6.75 477.81-5.6 479.26-4.45 481.26-3.83 483.26-3.2 485.66-3.2L485.66-3.2Q488.31-3.2 490.36-4.08 492.41-4.95 493.59-6.63 494.76-8.3 494.76-10.7L494.76-10.7Q494.76-13.75 492.51-15.95 490.26-18.15 485.46-18.75L485.46-18.75Q479.61-19.45 476.31-22.38 473.01-25.3 473.01-29.55L473.01-29.55Q473.01-32.6 474.64-34.85 476.26-37.1 479.11-38.33 481.96-39.55 485.66-39.55L485.66-39.55Q488.41-39.55 490.66-38.68 492.91-37.8 494.59-36.38 496.26-34.95 497.31-33.25L497.31-33.25Q497.81-32.45 497.64-31.7 497.46-30.95 496.76-30.55L496.76-30.55Q496.01-30.2 495.24-30.45 494.46-30.7 494.06-31.4L494.06-31.4Q493.31-32.55 492.19-33.58 491.06-34.6 489.46-35.2 487.86-35.8 485.61-35.85L485.61-35.85Q481.66-35.85 479.26-34.18 476.86-32.5 476.86-29.3L476.86-29.3Q476.86-27.6 477.76-26.18 478.66-24.75 480.74-23.73 482.81-22.7 486.31-22.2L486.31-22.2Q492.56-21.3 495.59-18.38 498.61-15.45 498.61-10.75L498.61-10.75Q498.61-8.05 497.64-5.95 496.66-3.85 494.89-2.43 493.11-1 490.74-0.25 488.36 0.5 485.66 0.5ZM518.01 0L516.96 0Q514.31 0 512.23-1.25 510.16-2.5 508.96-4.67 507.76-6.85 507.76-9.65L507.76-9.65 507.76-34.1Q507.76-34.95 508.28-35.5 508.81-36.05 509.66-36.05L509.66-36.05Q510.51-36.05 511.06-35.5 511.61-34.95 511.61-34.1L511.61-34.1 511.61-9.65Q511.61-7.1 513.11-5.48 514.61-3.85 516.96-3.85L516.96-3.85 518.31-3.85Q519.11-3.85 519.61-3.3 520.11-2.75 520.11-1.9L520.11-1.9Q520.11-1.05 519.51-0.53 518.91 0 518.01 0L518.01 0ZM517.26-23L504.51-23Q503.76-23 503.26-23.48 502.76-23.95 502.76-24.65L502.76-24.65Q502.76-25.4 503.26-25.88 503.76-26.35 504.51-26.35L504.51-26.35 517.26-26.35Q518.01-26.35 518.51-25.88 519.01-25.4 519.01-24.65L519.01-24.65Q519.01-23.95 518.51-23.48 518.01-23 517.26-23L517.26-23ZM531.06 11.9L531.06 11.9Q530.65 11.9 530.15 11.7L530.15 11.7Q528.46 10.95 529.21 9.3L529.21 9.3 545.36-26.3Q546.11-27.9 547.75-27.2L547.75-27.2Q549.46-26.5 548.71-24.85L548.71-24.85 532.5 10.75Q532 11.9 531.06 11.9ZM536.61-0.85L536.61-0.85Q535.86-0.5 535.21-0.73 534.56-0.95 534.15-1.7L534.15-1.7 523-24.8Q522.65-25.55 522.9-26.2 523.15-26.85 523.9-27.2L523.9-27.2Q524.65-27.55 525.31-27.33 525.96-27.1 526.31-26.35L526.31-26.35 537.25-3.25Q537.65-2.5 537.5-1.85 537.36-1.2 536.61-0.85ZM560.3 0L559.65 0Q557.65 0 556.08-1.1 554.5-2.2 553.63-4.15 552.75-6.1 552.75-8.65L552.75-8.65 552.75-37.15Q552.75-38 553.28-38.53 553.8-39.05 554.65-39.05L554.65-39.05Q555.5-39.05 556.03-38.53 556.55-38 556.55-37.15L556.55-37.15 556.55-8.65Q556.55-6.5 557.43-5.15 558.3-3.8 559.65-3.8L559.65-3.8 560.9-3.8Q561.65-3.8 562.1-3.28 562.55-2.75 562.55-1.9L562.55-1.9Q562.55-1.05 561.93-0.53 561.3 0 560.3 0L560.3 0ZM578.75 0.25L578.75 0.25Q574.7 0.25 571.57-1.53 568.45-3.3 566.67-6.45 564.9-9.6 564.9-13.65L564.9-13.65Q564.9-17.75 566.57-20.88 568.25-24 571.2-25.8 574.15-27.6 578-27.6L578-27.6Q581.8-27.6 584.62-25.88 587.45-24.15 589-21.1 590.55-18.05 590.55-14.15L590.55-14.15Q590.55-13.35 590.05-12.88 589.55-12.4 588.75-12.4L588.75-12.4 567.5-12.4 567.5-15.6 589.15-15.6 587-14.05Q587.05-16.95 585.95-19.25 584.85-21.55 582.82-22.85 580.8-24.15 578-24.15L578-24.15Q575.15-24.15 573-22.8 570.85-21.45 569.67-19.07 568.5-16.7 568.5-13.65L568.5-13.65Q568.5-10.6 569.82-8.25 571.15-5.9 573.45-4.55 575.75-3.2 578.75-3.2L578.75-3.2Q580.55-3.2 582.37-3.83 584.2-4.45 585.3-5.4L585.3-5.4Q585.85-5.85 586.55-5.88 587.25-5.9 587.75-5.5L587.75-5.5Q588.4-4.9 588.42-4.2 588.45-3.5 587.85-3L587.85-3Q586.2-1.6 583.65-0.68 581.1 0.25 578.75 0.25ZM608.1-11.75L596.35-11.75Q595.55-11.75 595-12.3 594.45-12.85 594.45-13.65L594.45-13.65Q594.45-14.5 595-15.05 595.55-15.6 596.35-15.6L596.35-15.6 608.1-15.6Q608.95-15.6 609.5-15.05 610.05-14.5 610.05-13.65L610.05-13.65Q610.05-12.85 609.5-12.3 608.95-11.75 608.1-11.75L608.1-11.75ZM629.09 0.5L629.09 0.5Q625.89 0.5 623.17-0.43 620.44-1.35 618.44-3.05 616.44-4.75 615.39-7L615.39-7Q614.99-7.8 615.37-8.47 615.74-9.15 616.64-9.4L616.64-9.4Q617.34-9.6 618.02-9.25 618.69-8.9 619.04-8.2L619.04-8.2Q619.79-6.75 621.24-5.6 622.69-4.45 624.69-3.83 626.69-3.2 629.09-3.2L629.09-3.2Q631.74-3.2 633.79-4.08 635.84-4.95 637.02-6.63 638.19-8.3 638.19-10.7L638.19-10.7Q638.19-13.75 635.94-15.95 633.69-18.15 628.89-18.75L628.89-18.75Q623.04-19.45 619.74-22.38 616.44-25.3 616.44-29.55L616.44-29.55Q616.44-32.6 618.07-34.85 619.69-37.1 622.54-38.33 625.39-39.55 629.09-39.55L629.09-39.55Q631.84-39.55 634.09-38.68 636.34-37.8 638.02-36.38 639.69-34.95 640.74-33.25L640.74-33.25Q641.24-32.45 641.07-31.7 640.89-30.95 640.19-30.55L640.19-30.55Q639.44-30.2 638.67-30.45 637.89-30.7 637.49-31.4L637.49-31.4Q636.74-32.55 635.62-33.58 634.49-34.6 632.89-35.2 631.29-35.8 629.04-35.85L629.04-35.85Q625.09-35.85 622.69-34.18 620.29-32.5 620.29-29.3L620.29-29.3Q620.29-27.6 621.19-26.18 622.09-24.75 624.17-23.73 626.24-22.7 629.74-22.2L629.74-22.2Q635.99-21.3 639.02-18.38 642.04-15.45 642.04-10.75L642.04-10.75Q642.04-8.05 641.07-5.95 640.09-3.85 638.32-2.43 636.54-1 634.17-0.25 631.79 0.5 629.09 0.5ZM673.14 0L673.14 0Q672.29 0 671.74-0.55 671.19-1.1 671.19-1.9L671.19-1.9 671.19-14.9Q671.19-18 670.02-20 668.84-22 666.82-23 664.79-24 662.24-24L662.24-24Q659.79-24 657.82-23.05 655.84-22.1 654.69-20.45 653.54-18.8 653.54-16.7L653.54-16.7 650.79-16.7Q650.89-19.85 652.49-22.33 654.09-24.8 656.74-26.23 659.39-27.65 662.64-27.65L662.64-27.65Q666.19-27.65 668.99-26.18 671.79-24.7 673.42-21.85 675.04-19 675.04-14.9L675.04-14.9 675.04-1.9Q675.04-1.1 674.49-0.55 673.94 0 673.14 0ZM651.64 0L651.64 0Q650.74 0 650.22-0.53 649.69-1.05 649.69-1.9L649.69-1.9 649.69-25.4Q649.69-26.3 650.22-26.83 650.74-27.35 651.64-27.35L651.64-27.35Q652.49-27.35 653.02-26.83 653.54-26.3 653.54-25.4L653.54-25.4 653.54-1.9Q653.54-1.05 653.02-0.53 652.49 0 651.64 0ZM651.64-11.15L651.64-11.15Q650.74-11.15 650.22-11.7 649.69-12.25 649.69-13.1L649.69-13.1 649.69-37.1Q649.69-38 650.22-38.53 650.74-39.05 651.64-39.05L651.64-39.05Q652.49-39.05 653.02-38.53 653.54-38 653.54-37.1L653.54-37.1 653.54-13.1Q653.54-12.25 653.02-11.7 652.49-11.15 651.64-11.15ZM695.99 0.25L695.99 0.25Q691.99 0.25 688.84-1.55 685.69-3.35 683.89-6.5 682.09-9.65 682.09-13.65L682.09-13.65Q682.09-17.7 683.89-20.85 685.69-24 688.84-25.8 691.99-27.6 695.99-27.6L695.99-27.6Q699.99-27.6 703.11-25.8 706.24-24 708.04-20.85 709.84-17.7 709.89-13.65L709.89-13.65Q709.89-9.65 708.06-6.5 706.24-3.35 703.11-1.55 699.99 0.25 695.99 0.25ZM695.99-3.25L695.99-3.25Q698.89-3.25 701.19-4.6 703.49-5.95 704.79-8.3 706.09-10.65 706.09-13.65L706.09-13.65Q706.09-16.65 704.79-19.03 703.49-21.4 701.19-22.75 698.89-24.1 695.99-24.1L695.99-24.1Q693.09-24.1 690.79-22.75 688.49-21.4 687.16-19.03 685.84-16.65 685.84-13.65L685.84-13.65Q685.84-10.65 687.16-8.3 688.49-5.95 690.79-4.6 693.09-3.25 695.99-3.25ZM719.34 11.7L719.34 11.7Q718.44 11.7 717.91 11.18 717.39 10.65 717.39 9.75L717.39 9.75 717.39-13.85Q717.44-17.75 719.26-20.88 721.09-24 724.21-25.8 727.34-27.6 731.24-27.6L731.24-27.6Q735.24-27.6 738.39-25.78 741.54-23.95 743.36-20.8 745.19-17.65 745.19-13.65L745.19-13.65Q745.19-9.7 743.41-6.55 741.64-3.4 738.59-1.58 735.54 0.25 731.69 0.25L731.69 0.25Q728.34 0.25 725.61-1.18 722.89-2.6 721.24-4.95L721.24-4.95 721.24 9.75Q721.24 10.65 720.71 11.18 720.19 11.7 719.34 11.7ZM731.24-3.25L731.24-3.25Q734.14-3.25 736.44-4.6 738.74-5.95 740.06-8.33 741.39-10.7 741.39-13.65L741.39-13.65Q741.39-16.65 740.06-19 738.74-21.35 736.44-22.73 734.14-24.1 731.24-24.1L731.24-24.1Q728.39-24.1 726.09-22.73 723.79-21.35 722.49-19 721.19-16.65 721.19-13.65L721.19-13.65Q721.19-10.7 722.49-8.33 723.79-5.95 726.09-4.6 728.39-3.25 731.24-3.25ZM779.88 0.5L779.88 0.5Q776.68 0.5 773.96-0.43 771.23-1.35 769.23-3.05 767.23-4.75 766.18-7L766.18-7Q765.78-7.8 766.16-8.47 766.53-9.15 767.43-9.4L767.43-9.4Q768.13-9.6 768.81-9.25 769.48-8.9 769.83-8.2L769.83-8.2Q770.58-6.75 772.03-5.6 773.48-4.45 775.48-3.83 777.48-3.2 779.88-3.2L779.88-3.2Q782.53-3.2 784.58-4.08 786.63-4.95 787.81-6.63 788.98-8.3 788.98-10.7L788.98-10.7Q788.98-13.75 786.73-15.95 784.48-18.15 779.68-18.75L779.68-18.75Q773.83-19.45 770.53-22.38 767.23-25.3 767.23-29.55L767.23-29.55Q767.23-32.6 768.86-34.85 770.48-37.1 773.33-38.33 776.18-39.55 779.88-39.55L779.88-39.55Q782.63-39.55 784.88-38.68 787.13-37.8 788.81-36.38 790.48-34.95 791.53-33.25L791.53-33.25Q792.03-32.45 791.86-31.7 791.68-30.95 790.98-30.55L790.98-30.55Q790.23-30.2 789.46-30.45 788.68-30.7 788.28-31.4L788.28-31.4Q787.53-32.55 786.41-33.58 785.28-34.6 783.68-35.2 782.08-35.8 779.83-35.85L779.83-35.85Q775.88-35.85 773.48-34.18 771.08-32.5 771.08-29.3L771.08-29.3Q771.08-27.6 771.98-26.18 772.88-24.75 774.96-23.73 777.03-22.7 780.53-22.2L780.53-22.2Q786.78-21.3 789.81-18.38 792.83-15.45 792.83-10.75L792.83-10.75Q792.83-8.05 791.86-5.95 790.88-3.85 789.11-2.43 787.33-1 784.96-0.25 782.58 0.5 779.88 0.5ZM837.43 0L837.43 0Q836.58 0 836.03-0.53 835.48-1.05 835.48-1.9L835.48-1.9 835.48-16.3Q835.48-19.85 833.63-21.93 831.78-24 828.88-24L828.88-24Q825.78-24 823.8-21.93 821.83-19.85 821.88-16.4L821.88-16.4 818.43-16.4Q818.48-19.75 819.88-22.3 821.28-24.85 823.73-26.25 826.18-27.65 829.28-27.65L829.28-27.65Q832.23-27.65 834.5-26.25 836.78-24.85 838.05-22.3 839.33-19.75 839.33-16.3L839.33-16.3 839.33-1.9Q839.33-1.05 838.8-0.53 838.28 0 837.43 0ZM802.43 0L802.43 0Q801.53 0 801-0.53 800.48-1.05 800.48-1.9L800.48-1.9 800.48-25.4Q800.48-26.25 801-26.8 801.53-27.35 802.43-27.35L802.43-27.35Q803.28-27.35 803.8-26.8 804.33-26.25 804.33-25.4L804.33-25.4 804.33-1.9Q804.33-1.05 803.8-0.53 803.28 0 802.43 0ZM819.98 0L819.98 0Q819.13 0 818.58-0.53 818.03-1.05 818.03-1.9L818.03-1.9 818.03-16.3Q818.03-19.85 816.18-21.93 814.33-24 811.43-24L811.43-24Q808.33-24 806.33-21.98 804.33-19.95 804.33-16.7L804.33-16.7 801.58-16.7Q801.68-19.9 803-22.38 804.33-24.85 806.63-26.25 808.93-27.65 811.83-27.65L811.83-27.65Q814.78-27.65 817.05-26.25 819.33-24.85 820.6-22.3 821.88-19.75 821.88-16.3L821.88-16.3 821.88-1.9Q821.88-1.05 821.35-0.53 820.83 0 819.98 0ZM859.88 0.25L859.88 0.25Q856.03 0.25 852.98-1.58 849.93-3.4 848.15-6.55 846.38-9.7 846.38-13.65L846.38-13.65Q846.38-17.65 848.2-20.8 850.03-23.95 853.18-25.78 856.33-27.6 860.28-27.6L860.28-27.6Q864.23-27.6 867.35-25.78 870.48-23.95 872.3-20.8 874.13-17.65 874.18-13.65L874.18-13.65 872.63-12.45Q872.63-8.85 870.95-5.98 869.28-3.1 866.4-1.43 863.53 0.25 859.88 0.25ZM860.28-3.25L860.28-3.25Q863.18-3.25 865.45-4.6 867.73-5.95 869.05-8.33 870.38-10.7 870.38-13.65L870.38-13.65Q870.38-16.65 869.05-19 867.73-21.35 865.45-22.73 863.18-24.1 860.28-24.1L860.28-24.1Q857.43-24.1 855.13-22.73 852.83-21.35 851.48-19 850.13-16.65 850.13-13.65L850.13-13.65Q850.13-10.7 851.48-8.33 852.83-5.95 855.13-4.6 857.43-3.25 860.28-3.25ZM872.23 0L872.23 0Q871.38 0 870.83-0.53 870.28-1.05 870.28-1.9L870.28-1.9 870.28-10.45 871.23-14.4 874.18-13.65 874.18-1.9Q874.18-1.05 873.63-0.53 873.08 0 872.23 0ZM885.47-16.85L883.27-16.85Q883.42-19.95 884.9-22.4 886.37-24.85 888.75-26.25 891.12-27.65 894.02-27.65L894.02-27.65Q896.32-27.65 897.57-27 898.82-26.35 898.52-25.1L898.52-25.1Q898.32-24.35 897.85-24.1 897.37-23.85 896.7-23.9 896.02-23.95 895.17-24L895.17-24Q892.37-24.25 890.2-23.43 888.02-22.6 886.75-20.9 885.47-19.2 885.47-16.85L885.47-16.85ZM883.57 0L883.57 0Q882.67 0 882.17-0.5 881.67-1 881.67-1.9L881.67-1.9 881.67-25.45Q881.67-26.35 882.17-26.85 882.67-27.35 883.57-27.35L883.57-27.35Q884.47-27.35 884.97-26.85 885.47-26.35 885.47-25.45L885.47-25.45 885.47-1.9Q885.47-1 884.97-0.5 884.47 0 883.57 0ZM916.32 0L915.27 0Q912.62 0 910.55-1.25 908.47-2.5 907.27-4.67 906.07-6.85 906.07-9.65L906.07-9.65 906.07-34.1Q906.07-34.95 906.6-35.5 907.12-36.05 907.97-36.05L907.97-36.05Q908.82-36.05 909.37-35.5 909.92-34.95 909.92-34.1L909.92-34.1 909.92-9.65Q909.92-7.1 911.42-5.48 912.92-3.85 915.27-3.85L915.27-3.85 916.62-3.85Q917.42-3.85 917.92-3.3 918.42-2.75 918.42-1.9L918.42-1.9Q918.42-1.05 917.82-0.53 917.22 0 916.32 0L916.32 0ZM915.57-23L902.82-23Q902.07-23 901.57-23.48 901.07-23.95 901.07-24.65L901.07-24.65Q901.07-25.4 901.57-25.88 902.07-26.35 902.82-26.35L902.82-26.35 915.57-26.35Q916.32-26.35 916.82-25.88 917.32-25.4 917.32-24.65L917.32-24.65Q917.32-23.95 916.82-23.48 916.32-23 915.57-23L915.57-23ZM937.07 0.25L937.07 0.25Q933.02 0.25 929.89-1.53 926.77-3.3 924.99-6.45 923.22-9.6 923.22-13.65L923.22-13.65Q923.22-17.75 924.89-20.88 926.57-24 929.52-25.8 932.47-27.6 936.32-27.6L936.32-27.6Q940.12-27.6 942.94-25.88 945.77-24.15 947.32-21.1 948.87-18.05 948.87-14.15L948.87-14.15Q948.87-13.35 948.37-12.88 947.87-12.4 947.07-12.4L947.07-12.4 925.82-12.4 925.82-15.6 947.47-15.6 945.32-14.05Q945.37-16.95 944.27-19.25 943.17-21.55 941.14-22.85 939.12-24.15 936.32-24.15L936.32-24.15Q933.47-24.15 931.32-22.8 929.17-21.45 927.99-19.07 926.82-16.7 926.82-13.65L926.82-13.65Q926.82-10.6 928.14-8.25 929.47-5.9 931.77-4.55 934.07-3.2 937.07-3.2L937.07-3.2Q938.87-3.2 940.69-3.83 942.52-4.45 943.62-5.4L943.62-5.4Q944.17-5.85 944.87-5.88 945.57-5.9 946.07-5.5L946.07-5.5Q946.72-4.9 946.74-4.2 946.77-3.5 946.17-3L946.17-3Q944.52-1.6 941.97-0.68 939.42 0.25 937.07 0.25ZM959.17-16.85L956.97-16.85Q957.12-19.95 958.59-22.4 960.07-24.85 962.44-26.25 964.82-27.65 967.72-27.65L967.72-27.65Q970.02-27.65 971.27-27 972.52-26.35 972.22-25.1L972.22-25.1Q972.02-24.35 971.54-24.1 971.07-23.85 970.39-23.9 969.72-23.95 968.87-24L968.87-24Q966.07-24.25 963.89-23.43 961.72-22.6 960.44-20.9 959.17-19.2 959.17-16.85L959.17-16.85ZM957.27 0L957.27 0Q956.37 0 955.87-0.5 955.37-1 955.37-1.9L955.37-1.9 955.37-25.45Q955.37-26.35 955.87-26.85 956.37-27.35 957.27-27.35L957.27-27.35Q958.17-27.35 958.67-26.85 959.17-26.35 959.17-25.45L959.17-25.45 959.17-1.9Q959.17-1 958.67-0.5 958.17 0 957.27 0ZM969.81 8.1L969.81 8.1Q969.31 8.1 969.04 7.83 968.76 7.55 968.76 7.1L968.76 7.1Q968.76 6.35 969.21 5.73 969.66 5.1 970.14 4.4 970.61 3.7 970.61 2.7L970.61 2.7Q970.61 1.8 970.26 1.2 969.91 0.6 969.44 0.13 968.96-0.35 968.61-0.93 968.26-1.5 968.26-2.35L968.26-2.35Q968.26-3.6 969.09-4.35 969.91-5.1 971.16-5.1L971.16-5.1Q972.66-5.1 973.61-3.93 974.56-2.75 974.56-0.65L974.56-0.65Q974.56 0.75 974.16 2.3 973.76 3.85 973.06 5.18 972.36 6.5 971.51 7.3 970.66 8.1 969.81 8.1ZM1005.51 0L984.01 0Q983.21 0 982.64-0.55 982.06-1.1 982.06-1.95L982.06-1.95 982.06-37.1Q982.06-37.9 982.64-38.48 983.21-39.05 984.01-39.05L984.01-39.05Q984.81-39.05 985.39-38.48 985.96-37.9 985.96-37.1L985.96-37.1 985.96-3.7 1005.51-3.7Q1006.31-3.7 1006.89-3.18 1007.46-2.65 1007.46-1.85L1007.46-1.85Q1007.46-1.05 1006.89-0.53 1006.31 0 1005.51 0L1005.51 0ZM1015.96 0L1015.96 0Q1015.06 0 1014.53-0.53 1014.01-1.05 1014.01-1.95L1014.01-1.95 1014.01-25.4Q1014.01-26.3 1014.53-26.83 1015.06-27.35 1015.96-27.35L1015.96-27.35Q1016.81-27.35 1017.33-26.83 1017.86-26.3 1017.86-25.4L1017.86-25.4 1017.86-1.95Q1017.86-1.05 1017.33-0.53 1016.81 0 1015.96 0ZM1015.91-32.55L1015.91-32.55Q1014.81-32.55 1014.01-33.35 1013.21-34.15 1013.21-35.3L1013.21-35.3Q1013.21-36.55 1014.03-37.27 1014.86-38 1015.96-38L1015.96-38Q1017.01-38 1017.83-37.27 1018.66-36.55 1018.66-35.3L1018.66-35.3Q1018.66-34.15 1017.86-33.35 1017.06-32.55 1015.91-32.55ZM1037.01 0L1037.01 0Q1035.81 0 1035.21-1.3L1035.21-1.3 1024.11-24.85Q1023.81-25.5 1024.06-26.15 1024.31-26.8 1025.06-27.15L1025.06-27.15Q1025.76-27.5 1026.41-27.25 1027.06-27 1027.41-26.35L1027.41-26.35 1038.06-3.3 1036.01-3.3 1046.51-26.35Q1046.81-27.05 1047.53-27.28 1048.26-27.5 1048.96-27.2L1048.96-27.2Q1049.66-26.85 1049.91-26.18 1050.16-25.5 1049.86-24.9L1049.86-24.9 1038.91-1.3Q1038.31 0 1037.01 0ZM1066.7 0.25L1066.7 0.25Q1062.65 0.25 1059.53-1.53 1056.4-3.3 1054.63-6.45 1052.85-9.6 1052.85-13.65L1052.85-13.65Q1052.85-17.75 1054.53-20.88 1056.2-24 1059.15-25.8 1062.1-27.6 1065.95-27.6L1065.95-27.6Q1069.75-27.6 1072.58-25.88 1075.4-24.15 1076.95-21.1 1078.5-18.05 1078.5-14.15L1078.5-14.15Q1078.5-13.35 1078-12.88 1077.5-12.4 1076.7-12.4L1076.7-12.4 1055.45-12.4 1055.45-15.6 1077.1-15.6 1074.95-14.05Q1075-16.95 1073.9-19.25 1072.8-21.55 1070.78-22.85 1068.75-24.15 1065.95-24.15L1065.95-24.15Q1063.1-24.15 1060.95-22.8 1058.8-21.45 1057.63-19.07 1056.45-16.7 1056.45-13.65L1056.45-13.65Q1056.45-10.6 1057.78-8.25 1059.1-5.9 1061.4-4.55 1063.7-3.2 1066.7-3.2L1066.7-3.2Q1068.5-3.2 1070.33-3.83 1072.15-4.45 1073.25-5.4L1073.25-5.4Q1073.8-5.85 1074.5-5.88 1075.2-5.9 1075.7-5.5L1075.7-5.5Q1076.35-4.9 1076.38-4.2 1076.4-3.5 1075.8-3L1075.8-3Q1074.15-1.6 1071.6-0.68 1069.05 0.25 1066.7 0.25ZM1115.1 0L1102.35 0Q1101.4 0 1100.77-0.53 1100.15-1.05 1100.15-1.95L1100.15-1.95 1100.15-37.1Q1100.15-37.95 1100.7-38.5 1101.25-39.05 1102.1-39.05L1102.1-39.05 1114.25-39.05Q1117.25-39.05 1119.67-37.77 1122.1-36.5 1123.52-34.3 1124.95-32.1 1124.95-29.2L1124.95-29.2Q1124.95-26.5 1123.5-24.4 1122.05-22.3 1119.7-21.2L1119.7-21.2Q1123.05-20.3 1125.1-17.82 1127.15-15.35 1127.15-11.55L1127.15-11.55Q1127.15-8.15 1125.6-5.55 1124.05-2.95 1121.32-1.48 1118.6 0 1115.1 0L1115.1 0ZM1104.05-19L1104.05-3.75 1115.1-3.75Q1117.5-3.75 1119.35-4.7 1121.2-5.65 1122.25-7.4 1123.3-9.15 1123.3-11.55L1123.3-11.55Q1123.3-13.8 1122.25-15.48 1121.2-17.15 1119.35-18.07 1117.5-19 1115.1-19L1115.1-19 1104.05-19ZM1104.05-35.3L1104.05-22.75 1114.25-22.75Q1117.25-22.75 1119.2-24.45 1121.15-26.15 1121.15-29.2L1121.15-29.2Q1121.15-32.2 1119.2-33.75 1117.25-35.3 1114.25-35.3L1114.25-35.3 1104.05-35.3ZM1146.8 0.25L1146.8 0.25Q1142.75 0.25 1139.62-1.53 1136.5-3.3 1134.72-6.45 1132.95-9.6 1132.95-13.65L1132.95-13.65Q1132.95-17.75 1134.62-20.88 1136.3-24 1139.25-25.8 1142.2-27.6 1146.05-27.6L1146.05-27.6Q1149.85-27.6 1152.67-25.88 1155.5-24.15 1157.05-21.1 1158.6-18.05 1158.6-14.15L1158.6-14.15Q1158.6-13.35 1158.1-12.88 1157.6-12.4 1156.8-12.4L1156.8-12.4 1135.55-12.4 1135.55-15.6 1157.2-15.6 1155.05-14.05Q1155.1-16.95 1154-19.25 1152.9-21.55 1150.87-22.85 1148.85-24.15 1146.05-24.15L1146.05-24.15Q1143.2-24.15 1141.05-22.8 1138.9-21.45 1137.72-19.07 1136.55-16.7 1136.55-13.65L1136.55-13.65Q1136.55-10.6 1137.87-8.25 1139.2-5.9 1141.5-4.55 1143.8-3.2 1146.8-3.2L1146.8-3.2Q1148.6-3.2 1150.42-3.83 1152.25-4.45 1153.35-5.4L1153.35-5.4Q1153.9-5.85 1154.6-5.88 1155.3-5.9 1155.8-5.5L1155.8-5.5Q1156.45-4.9 1156.47-4.2 1156.5-3.5 1155.9-3L1155.9-3Q1154.25-1.6 1151.7-0.68 1149.15 0.25 1146.8 0.25ZM1176.84 0L1175.79 0Q1173.14 0 1171.07-1.25 1168.99-2.5 1167.79-4.67 1166.59-6.85 1166.59-9.65L1166.59-9.65 1166.59-34.1Q1166.59-34.95 1167.12-35.5 1167.64-36.05 1168.49-36.05L1168.49-36.05Q1169.34-36.05 1169.89-35.5 1170.44-34.95 1170.44-34.1L1170.44-34.1 1170.44-9.65Q1170.44-7.1 1171.94-5.48 1173.44-3.85 1175.79-3.85L1175.79-3.85 1177.14-3.85Q1177.94-3.85 1178.44-3.3 1178.94-2.75 1178.94-1.9L1178.94-1.9Q1178.94-1.05 1178.34-0.53 1177.74 0 1176.84 0L1176.84 0ZM1176.09-23L1163.34-23Q1162.59-23 1162.09-23.48 1161.59-23.95 1161.59-24.65L1161.59-24.65Q1161.59-25.4 1162.09-25.88 1162.59-26.35 1163.34-26.35L1163.34-26.35 1176.09-26.35Q1176.84-26.35 1177.34-25.88 1177.84-25.4 1177.84-24.65L1177.84-24.65Q1177.84-23.95 1177.34-23.48 1176.84-23 1176.09-23L1176.09-23ZM1196.94 0L1195.89 0Q1193.24 0 1191.17-1.25 1189.09-2.5 1187.89-4.67 1186.69-6.85 1186.69-9.65L1186.69-9.65 1186.69-34.1Q1186.69-34.95 1187.22-35.5 1187.74-36.05 1188.59-36.05L1188.59-36.05Q1189.44-36.05 1189.99-35.5 1190.54-34.95 1190.54-34.1L1190.54-34.1 1190.54-9.65Q1190.54-7.1 1192.04-5.48 1193.54-3.85 1195.89-3.85L1195.89-3.85 1197.24-3.85Q1198.04-3.85 1198.54-3.3 1199.04-2.75 1199.04-1.9L1199.04-1.9Q1199.04-1.05 1198.44-0.53 1197.84 0 1196.94 0L1196.94 0ZM1196.19-23L1183.44-23Q1182.69-23 1182.19-23.48 1181.69-23.95 1181.69-24.65L1181.69-24.65Q1181.69-25.4 1182.19-25.88 1182.69-26.35 1183.44-26.35L1183.44-26.35 1196.19-26.35Q1196.94-26.35 1197.44-25.88 1197.94-25.4 1197.94-24.65L1197.94-24.65Q1197.94-23.95 1197.44-23.48 1196.94-23 1196.19-23L1196.19-23ZM1217.69 0.25L1217.69 0.25Q1213.64 0.25 1210.51-1.53 1207.39-3.3 1205.61-6.45 1203.84-9.6 1203.84-13.65L1203.84-13.65Q1203.84-17.75 1205.51-20.88 1207.19-24 1210.14-25.8 1213.09-27.6 1216.94-27.6L1216.94-27.6Q1220.74-27.6 1223.56-25.88 1226.39-24.15 1227.94-21.1 1229.49-18.05 1229.49-14.15L1229.49-14.15Q1229.49-13.35 1228.99-12.88 1228.49-12.4 1227.69-12.4L1227.69-12.4 1206.44-12.4 1206.44-15.6 1228.09-15.6 1225.94-14.05Q1225.99-16.95 1224.89-19.25 1223.79-21.55 1221.76-22.85 1219.74-24.15 1216.94-24.15L1216.94-24.15Q1214.09-24.15 1211.94-22.8 1209.79-21.45 1208.61-19.07 1207.44-16.7 1207.44-13.65L1207.44-13.65Q1207.44-10.6 1208.76-8.25 1210.09-5.9 1212.39-4.55 1214.69-3.2 1217.69-3.2L1217.69-3.2Q1219.49-3.2 1221.31-3.83 1223.14-4.45 1224.24-5.4L1224.24-5.4Q1224.79-5.85 1225.49-5.88 1226.19-5.9 1226.69-5.5L1226.69-5.5Q1227.34-4.9 1227.36-4.2 1227.39-3.5 1226.79-3L1226.79-3Q1225.14-1.6 1222.59-0.68 1220.04 0.25 1217.69 0.25ZM1239.79-16.85L1237.59-16.85Q1237.74-19.95 1239.21-22.4 1240.69-24.85 1243.06-26.25 1245.44-27.65 1248.34-27.65L1248.34-27.65Q1250.64-27.65 1251.89-27 1253.14-26.35 1252.84-25.1L1252.84-25.1Q1252.64-24.35 1252.16-24.1 1251.69-23.85 1251.01-23.9 1250.34-23.95 1249.49-24L1249.49-24Q1246.69-24.25 1244.51-23.43 1242.34-22.6 1241.06-20.9 1239.79-19.2 1239.79-16.85L1239.79-16.85ZM1237.89 0L1237.89 0Q1236.99 0 1236.49-0.5 1235.99-1 1235.99-1.9L1235.99-1.9 1235.99-25.45Q1235.99-26.35 1236.49-26.85 1236.99-27.35 1237.89-27.35L1237.89-27.35Q1238.79-27.35 1239.29-26.85 1239.79-26.35 1239.79-25.45L1239.79-25.45 1239.79-1.9Q1239.79-1 1239.29-0.5 1238.79 0 1237.89 0Z" opacity="1" transform="matrix(1,0,0,1,0,0)" fill="#61777f" class="slogan-text-1" data-fill-palette-color="secondary" id="text-1"></path></svg></g></svg></g></svg></g></svg></g></svg></g></svg></g></svg></g><path d="M216.11 77.118L216.11 17.917 4.744 17.917 4.744 229.283 216.11 229.283 216.11 170.082 210.939 170.082 210.939 224.111 9.916 224.111 9.916 23.089 210.939 23.089 210.939 77.118Z" fill="#000000" stroke="transparent" data-fill-palette-color="tertiary"></path></svg></g><defs></defs></svg><rect width="395.52" height="247.2" fill="none" stroke="none" visibility="hidden"></rect></g></svg></g></svg>